<svg width="190" height="240" viewBox="0 0 190 240" fill="none" xmlns="http://www.w3.org/2000/svg">
  <path d="M28 30C46 18 66 18 86 28" stroke="#181818" stroke-width="3.2" stroke-linecap="round" stroke-dasharray="1 7"/>
  <circle cx="94" cy="92" r="44" stroke="#181818" stroke-width="2.8"/>
  <path d="M48 86C41 60 57 42 74 48" stroke="#181818" stroke-width="2.8" stroke-linecap="round" stroke-linejoin="round"/>
  <path d="M58 58C74 34 102 34 118 50" stroke="#181818" stroke-width="2.8" stroke-linecap="round" stroke-linejoin="round"/>
  <path d="M116 51C133 45 145 61 138 87" stroke="#181818" stroke-width="2.8" stroke-linecap="round" stroke-linejoin="round"/>
  <path d="M50 73C57 61 66 54 78 52" stroke="#181818" stroke-width="2.8" stroke-linecap="round" stroke-linejoin="round"/>
  <path d="M67 52C79 45 96 45 108 52" stroke="#181818" stroke-width="2.8" stroke-linecap="round" stroke-linejoin="round"/>
  <path d="M108 52C120 56 130 64 132 78" stroke="#181818" stroke-width="2.8" stroke-linecap="round" stroke-linejoin="round"/>
  <path d="M47 96C41 78 45 63 59 53" stroke="#181818" stroke-width="2.8" stroke-linecap="round" stroke-linejoin="round"/>
  <path d="M138 96C144 80 143 63 129 52" stroke="#181818" stroke-width="2.8" stroke-linecap="round" stroke-linejoin="round"/>
  <ellipse cx="52" cy="63" rx="7" ry="12" transform="rotate(-18 52 63)" stroke="#181818" stroke-width="2.1"/>
  <ellipse cx="60" cy="54" rx="7" ry="12" transform="rotate(16 60 54)" stroke="#181818" stroke-width="2.1"/>
  <ellipse cx="71" cy="50" rx="7" ry="12" transform="rotate(-18 71 50)" stroke="#181818" stroke-width="2.1"/>
  <ellipse cx="84" cy="48" rx="7" ry="12" transform="rotate(16 84 48)" stroke="#181818" stroke-width="2.1"/>
  <ellipse cx="98" cy="49" rx="7" ry="12" transform="rotate(-18 98 49)" stroke="#181818" stroke-width="2.1"/>
  <ellipse cx="111" cy="53" rx="7" ry="12" transform="rotate(16 111 53)" stroke="#181818" stroke-width="2.1"/>
  <ellipse cx="123" cy="60" rx="7" ry="12" transform="rotate(-18 123 60)" stroke="#181818" stroke-width="2.1"/>
  <ellipse cx="131" cy="72" rx="7" ry="12" transform="rotate(16 131 72)" stroke="#181818" stroke-width="2.1"/>
  <ellipse cx="49" cy="77" rx="7" ry="12" transform="rotate(-18 49 77)" stroke="#181818" stroke-width="2.1"/>
  <ellipse cx="47" cy="92" rx="7" ry="12" transform="rotate(16 47 92)" stroke="#181818" stroke-width="2.1"/>
  <ellipse cx="51" cy="105" rx="7" ry="12" transform="rotate(-18 51 105)" stroke="#181818" stroke-width="2.1"/>
  <ellipse cx="60" cy="116" rx="7" ry="12" transform="rotate(16 60 116)" stroke="#181818" stroke-width="2.1"/>
  <ellipse cx="123" cy="115" rx="7" ry="12" transform="rotate(-18 123 115)" stroke="#181818" stroke-width="2.1"/>
  <ellipse cx="134" cy="104" rx="7" ry="12" transform="rotate(16 134 104)" stroke="#181818" stroke-width="2.1"/>
  <ellipse cx="137" cy="89" rx="7" ry="12" transform="rotate(-18 137 89)" stroke="#181818" stroke-width="2.1"/>
  <ellipse cx="134" cy="74" rx="7" ry="12" transform="rotate(16 134 74)" stroke="#181818" stroke-width="2.1"/>
  <path d="M95 106C97 109 101 109 103 106" stroke="#181818" stroke-width="2.4" stroke-linecap="round"/>
  <path d="M80 126C87 138 107 138 114 126" stroke="#181818" stroke-width="2.8" stroke-linecap="round"/>
  <path d="M95 136L94 151" stroke="#181818" stroke-width="2.6" stroke-linecap="round"/>
  <path d="M94 151C78 158 68 171 56 188" stroke="#181818" stroke-width="2.8" stroke-linecap="round" stroke-linejoin="round"/>
  <path d="M94 151C108 158 120 171 132 188" stroke="#181818" stroke-width="2.8" stroke-linecap="round" stroke-linejoin="round"/>
  <path d="M74 149C66 164 61 175 58 187" stroke="#181818" stroke-width="2.6" stroke-linecap="round"/>
  <path d="M114 149C122 164 127 175 130 187" stroke="#181818" stroke-width="2.6" stroke-linecap="round"/>
  <path d="M74 149C82 145 104 145 114 149L121 184C107 189 83 190 68 184Z" stroke="#181818" stroke-width="2.8" stroke-linejoin="round"/>
  <circle cx="82" cy="159" r="2.6" stroke="#181818" stroke-width="1.8"/>
  <circle cx="95" cy="163" r="2.6" stroke="#181818" stroke-width="1.8"/>
  <circle cx="107" cy="158" r="2.6" stroke="#181818" stroke-width="1.8"/>
  <circle cx="86" cy="171" r="2.6" stroke="#181818" stroke-width="1.8"/>
  <circle cx="100" cy="174" r="2.6" stroke="#181818" stroke-width="1.8"/>
  <circle cx="111" cy="169" r="2.6" stroke="#181818" stroke-width="1.8"/>
  <path d="M67 184C57 190 46 195 36 204" stroke="#181818" stroke-width="2.6" stroke-linecap="round"/>
  <path d="M122 184C131 190 143 195 153 204" stroke="#181818" stroke-width="2.6" stroke-linecap="round"/>
  <path d="M56 203C71 198 87 197 95 201" stroke="#181818" stroke-width="2.6" stroke-linecap="round"/>
  <path d="M95 201C104 197 120 198 136 203" stroke="#181818" stroke-width="2.6" stroke-linecap="round"/>
  <path d="M79 181C73 190 67 199 61 210" stroke="#181818" stroke-width="2.6" stroke-linecap="round"/>
  <path d="M110 181C117 190 123 199 129 210" stroke="#181818" stroke-width="2.6" stroke-linecap="round"/>
  <circle cx="74" cy="99" r="4.5" fill="#F3A8B8"/>
  <circle cx="115" cy="99" r="4.5" fill="#F3A8B8"/>
</svg>
